<svg width="25" height="24" viewBox="0 0 25 24" fill="none" xmlns="http://www.w3.org/2000/svg">
<g id="ic:baseline-apple">
<path id="Vector" d="M17.5502 20.28C16.5702 21.23 15.5002 21.08 14.4702 20.63C13.3802 20.17 12.3802 20.15 11.2302 20.63C9.79016 21.25 9.03016 21.07 8.17016 20.28C3.29016 15.25 4.01016 7.59 9.55016 7.31C10.9002 7.38 11.8402 8.05 12.6302 8.11C13.8102 7.87 14.9402 7.18 16.2002 7.27C17.7102 7.39 18.8502 7.99 19.6002 9.07C16.4802 10.94 17.2202 15.05 20.0802 16.2C19.5102 17.7 18.7702 19.19 17.5402 20.29L17.5502 20.28ZM12.5302 7.25C12.3802 5.02 14.1902 3.18 16.2702 3C16.5602 5.58 13.9302 7.5 12.5302 7.25Z" fill="black"/>
</g>
</svg>
