<svg width="18" height="18" viewBox="0 0 18 18" fill="none" xmlns="http://www.w3.org/2000/svg">
<g id="google" clip-path="url(#clip0_315_1669)">
<path id="Vector" d="M6.27029 0.592013C4.47181 1.21592 2.92081 2.40012 1.84509 3.97067C0.769378 5.54122 0.225656 7.41534 0.29379 9.31775C0.361924 11.2202 1.03832 13.0506 2.22364 14.5401C3.40895 16.0297 5.04069 17.0999 6.8792 17.5936C8.36972 17.9782 9.93134 17.9951 11.4298 17.6428C12.7873 17.3379 14.0423 16.6857 15.072 15.75C16.1437 14.7464 16.9216 13.4697 17.322 12.0572C17.7573 10.5211 17.8347 8.90567 17.5484 7.33498H9.17842V10.807H14.0258C13.9289 11.3608 13.7213 11.8893 13.4154 12.361C13.1095 12.8326 12.7116 13.2377 12.2455 13.552C11.6535 13.9436 10.9863 14.207 10.2865 14.3255C9.58475 14.4559 8.8649 14.4559 8.16311 14.3255C7.45181 14.1784 6.77893 13.8848 6.18732 13.4634C5.23691 12.7907 4.52328 11.8349 4.14826 10.7325C3.76691 9.60944 3.76691 8.39193 4.14826 7.26889C4.41521 6.48169 4.8565 5.76495 5.4392 5.17217C6.10603 4.48135 6.95026 3.98754 7.87926 3.74493C8.80826 3.50233 9.78614 3.52029 10.7056 3.79686C11.4239 4.01735 12.0807 4.40258 12.6237 4.92186C13.1703 4.37811 13.7159 3.83295 14.2606 3.28639C14.5419 2.99248 14.8484 2.71264 15.1254 2.4117C14.2966 1.64034 13.3236 1.04012 12.2623 0.645451C10.3297 -0.0562822 8.21511 -0.0751406 6.27029 0.592013Z" fill="#BDBDBD"/>
<path id="Vector_2" d="M6.27004 0.592025C8.21469 -0.075582 10.3293 -0.05722 12.2621 0.644057C13.3235 1.04141 14.296 1.64452 15.1238 2.41874C14.8425 2.71968 14.5458 3.00093 14.2589 3.29343C13.7133 3.83812 13.1682 4.38093 12.6235 4.92187C12.0804 4.40259 11.4236 4.01736 10.7053 3.79687C9.78619 3.51933 8.80835 3.50033 7.8791 3.74194C6.94985 3.98356 6.1051 4.47646 5.43754 5.16656C4.85484 5.75934 4.41354 6.47608 4.1466 7.26328L1.23145 5.00624C2.27489 2.93703 4.08156 1.35425 6.27004 0.592025Z" fill="#E33629"/>
<path id="Vector_3" d="M0.458551 7.24216C0.615237 6.46562 0.875368 5.71361 1.23199 5.00623L4.14714 7.26888C3.76579 8.39192 3.76579 9.60944 4.14714 10.7325C3.17589 11.4825 2.20418 12.2362 1.23199 12.9937C0.339231 11.2167 0.066956 9.19193 0.458551 7.24216Z" fill="#F8BD00"/>
<path id="Vector_4" d="M9.17836 7.33362H17.5484C17.8347 8.9043 17.7572 10.5197 17.322 12.0558C16.9215 13.4684 16.1436 14.745 15.072 15.7486C14.1312 15.0146 13.1862 14.2861 12.2454 13.5521C12.7118 13.2374 13.1099 12.8319 13.4158 12.3597C13.7217 11.8876 13.9292 11.3585 14.0257 10.8042H9.17836C9.17695 9.64831 9.17836 8.49096 9.17836 7.33362Z" fill="#587DBD"/>
<path id="Vector_5" d="M1.23047 12.9937C2.20266 12.2437 3.17437 11.49 4.14562 10.7325C4.52139 11.8353 5.23604 12.7911 6.1875 13.4634C6.78095 13.8829 7.45528 14.174 8.1675 14.3184C8.8693 14.4489 9.58914 14.4489 10.2909 14.3184C10.9907 14.2 11.6579 13.9365 12.2498 13.545C13.1906 14.279 14.1356 15.0075 15.0764 15.7415C14.0469 16.6777 12.7918 17.3304 11.4342 17.6358C9.93573 17.988 8.37411 17.9711 6.88359 17.5865C5.70474 17.2718 4.60361 16.7169 3.64922 15.9567C2.63905 15.1547 1.814 14.144 1.23047 12.9937Z" fill="#319F43"/>
</g>
<defs>
<clipPath id="clip0_315_1669">
<rect width="18" height="18" fill="white"/>
</clipPath>
</defs>
</svg>
