<svg width="16" height="16" viewBox="0 0 16 16" fill="none" xmlns="http://www.w3.org/2000/svg">
<g id="Group">
<path id="Vector" d="M7.74039 9.51491C7.54196 9.51491 7.35167 9.43608 7.21137 9.29578C7.07106 9.15547 6.99224 8.96518 6.99224 8.76676V6.52232C6.99224 6.3239 7.07106 6.1336 7.21137 5.9933C7.35167 5.85299 7.54196 5.77417 7.74039 5.77417C7.93881 5.77417 8.1291 5.85299 8.2694 5.9933C8.40971 6.1336 8.48853 6.3239 8.48853 6.52232V8.76676C8.48853 8.96518 8.40971 9.15547 8.2694 9.29578C8.1291 9.43608 7.93881 9.51491 7.74039 9.51491ZM6.61816 11.3853C6.61816 11.0876 6.7364 10.8022 6.94685 10.5917C7.15731 10.3813 7.44275 10.2631 7.74039 10.2631C8.03802 10.2631 8.32346 10.3813 8.53392 10.5917C8.74437 10.8022 8.86261 11.0876 8.86261 11.3853C8.86261 11.6829 8.74437 11.9683 8.53392 12.1788C8.32346 12.3893 8.03802 12.5075 7.74039 12.5075C7.44275 12.5075 7.15731 12.3893 6.94685 12.1788C6.7364 11.9683 6.61816 11.6829 6.61816 11.3853Z" fill="#AC3131"/>
<path id="Vector_2" d="M6.41572 1.29958C6.97683 0.233472 8.50305 0.233472 9.06416 1.29958L15.306 13.1592C15.8304 14.1557 15.1092 15.3528 13.9817 15.3528H1.49815C0.372184 15.3528 -0.349778 14.1557 0.173925 13.16L6.41572 1.29958ZM13.9825 13.8565L7.73994 1.99611L1.4974 13.8565H13.9825Z" fill="#AC3131"/>
</g>
</svg>
